<svg width="388" height="439" viewBox="0 0 388 439" fill="none" xmlns="http://www.w3.org/2000/svg">
<path d="M83.5 110C58.723 115.604 37 135.5 30 147C21.5 156 5.5 197 3.5 215C1 229 -1.11167 259.867 3.5 288C5.5 302 17.5353 356.885 46.5 388C74.5334 418.114 98.654 442.434 139.5 437.5C151.217 436.085 168.5 429 168.5 429C168.5 429 183.621 421.325 194 421.5C203.818 421.665 218 429 218 429C218 429 236.808 436.376 249.5 437.5C289.797 441.069 311.724 421.708 339 393C366.276 364.291 384 289 384 289C384 289 391.464 235.38 386 207C380.543 178.655 374.858 167.989 356.5 146C340.013 126.253 326.3 116.228 301 111C279.651 106.588 245.5 116 245.5 116C245.5 116 206 128 194 138C177 127.5 161.782 116.506 139.5 111C118.148 105.724 106 105 83.5 110Z" fill="white"/>
<path d="M179.5 67.5V95.5C179.5 95.5 188.037 95.7126 193.5 95.5C204.899 95.0564 211.508 95.0486 222.5 92C236.132 88.2193 245.167 86.1703 255 76C263.923 66.7713 265.838 58.8033 269.5 46.5C273.148 34.2437 273.043 26.7796 273.5 14C273.688 8.73129 273.5 0.499999 273.5 0.499999C273.5 0.499999 265.266 0.251311 260 0.499999C249.16 1.01192 242.922 1.47494 232.5 4.5C218.411 8.58938 209.552 11.3077 199 21.5C184.966 35.0554 179.5 67.5 179.5 67.5Z" fill="white"/>
</svg>
