<svg width="383" height="436" viewBox="0 0 383 436" fill="none" xmlns="http://www.w3.org/2000/svg">
<path d="M192 168C186.294 168 180.758 167.366 175.451 166.172C141.987 158.644 117 128.718 117 93C117 51.5786 150.579 18 192 18C233.421 18 267 51.5786 267 93C267 128.862 241.812 158.884 208.147 166.261C202.962 167.398 197.562 168 192 168ZM192 204C192.668 204 193.335 203.994 194 203.982V300V318H212H355.737C361.606 318.557 363.272 320.258 363.58 320.6C363.988 321.054 365 322.513 365 326.5V409C365 412.27 364.758 414.449 364.424 415.879C364.297 416.421 364.177 416.771 364.093 416.978C363.337 417.335 361.234 418 356.5 418H29.5C25.0183 418 22.1176 417.733 20.2205 417.335C19.8129 417.25 19.4947 417.167 19.2522 417.095C18.9454 416.09 18.5 413.857 18.5 409.5V327.5C18.5 323.524 18.787 321.12 19.1396 319.68C19.1883 319.481 19.2341 319.318 19.275 319.185C20.2712 318.793 23.0819 318 29.5 318H54H72V300V289.5H93V300V318H111H171.5H189.5V300V203.972C190.331 203.991 191.165 204 192 204ZM364.448 416.758C364.456 416.764 364.403 416.814 364.266 416.89C364.373 416.791 364.441 416.753 364.448 416.758ZM18.5967 416.855C18.5969 416.855 18.602 416.858 18.6118 416.863C18.6014 416.858 18.5966 416.855 18.5967 416.855ZM19.4549 417.649C19.5151 417.736 19.5392 417.788 19.5362 417.792C19.5332 417.797 19.5031 417.754 19.4549 417.649ZM19.4555 318.704C19.4557 318.704 19.4514 318.713 19.4419 318.73C19.4506 318.712 19.4553 318.704 19.4555 318.704ZM92.7375 284.278C92.7377 284.278 92.7406 284.289 92.7455 284.312C92.7397 284.29 92.7372 284.278 92.7375 284.278ZM360 342V324H342H41H23V342V394V412H41H342H360V394V342Z" stroke="white" stroke-width="36"/>
</svg>
