<svg width="495" height="326" viewBox="0 0 495 326" fill="none" xmlns="http://www.w3.org/2000/svg">
<rect x="17.5" y="17.5" width="460" height="291" rx="17.5" stroke="black" stroke-width="35"/>
<rect x="62" y="70" width="45" height="45" rx="15" fill="black"/>
<rect x="143" y="70" width="45" height="45" rx="15" fill="black"/>
<rect x="225" y="70" width="45" height="45" rx="15" fill="black"/>
<rect x="308" y="70" width="45" height="45" rx="15" fill="black"/>
<rect x="390" y="70" width="45" height="45" rx="15" fill="black"/>
<rect x="349" y="140" width="45" height="45" rx="15" fill="black"/>
<rect x="390" y="210" width="45" height="45" rx="15" fill="black"/>
<rect x="267" y="140" width="45" height="45" rx="15" fill="black"/>
<rect x="184" y="140" width="45" height="45" rx="15" fill="black"/>
<rect x="144" y="214" width="208" height="37" rx="15" fill="black"/>
<rect x="102" y="140" width="45" height="45" rx="15" fill="black"/>
<rect x="61" y="210" width="45" height="45" rx="15" fill="black"/>
</svg>
