<svg width="218" height="62" viewBox="0 0 218 62" fill="none" xmlns="http://www.w3.org/2000/svg">
<path d="M212.5 60H28C46 60 54 49 54 49H212.5C217.5 49 217.5 60 212.5 60Z" fill="#FF6D0B" stroke="black" stroke-width="3"/>
<circle cx="31" cy="31" r="29" fill="#FF6D0F" stroke="black" stroke-width="4"/>
<circle cx="30.5" cy="32.5" r="19" fill="#FFB479" stroke="black" stroke-width="3"/>
<path d="M39.5 36H21C22.886 42.5274 24 46.5 30.5 46.5C37 46.5 38.3358 41.664 39.5 36Z" stroke="black" stroke-width="3" stroke-linecap="round" stroke-linejoin="round"/>
<path d="M34.3014 25.7615C25.6716 30.8883 20.786 31.9268 12 30.2767C14.4952 20.1158 19.6028 13.5705 31.7671 14.022C45.959 15.3765 46.0612 22.1493 49 30.2767C49 30.2767 40.8905 32.5343 34.3014 25.7615Z" fill="black" stroke="black" stroke-width="3"/>
</svg>
