<svg width="398" height="449" viewBox="0 0 398 449" fill="none" xmlns="http://www.w3.org/2000/svg">
<path d="M88.5 115C63.723 120.604 42 140.5 35 152C26.5 161 10.5 202 8.5 220C6 234 3.88833 264.867 8.5 293C10.5 307 22.5353 361.885 51.5 393C79.5334 423.114 103.654 447.434 144.5 442.5C156.217 441.085 173.5 434 173.5 434C173.5 434 188.621 426.325 199 426.5C208.818 426.665 223 434 223 434C223 434 241.808 441.376 254.5 442.5C294.797 446.069 316.724 426.708 344 398C371.276 369.291 389 294 389 294C389 294 396.464 240.38 391 212C385.543 183.655 379.858 172.989 361.5 151C345.013 131.253 331.3 121.228 306 116C284.651 111.588 250.5 121 250.5 121C250.5 121 211 133 199 143C182 132.5 166.782 121.506 144.5 116C123.148 110.724 111 110 88.5 115Z" fill="white" stroke="#56CCF2" stroke-width="10"/>
<path d="M184.5 72.5V100.5C184.5 100.5 193.037 100.713 198.5 100.5C209.899 100.056 216.508 100.049 227.5 97C241.132 93.2193 250.167 91.1703 260 81C268.923 71.7713 270.838 63.8033 274.5 51.5C278.148 39.2437 278.043 31.7796 278.5 19C278.688 13.7313 278.5 5.5 278.5 5.5C278.5 5.5 270.266 5.25131 265 5.5C254.16 6.01192 247.922 6.47494 237.5 9.5C223.411 13.5894 214.552 16.3077 204 26.5C189.966 40.0554 184.5 72.5 184.5 72.5Z" fill="white" stroke="#56CCF2" stroke-width="9"/>
</svg>
